<svg width="128" height="128" viewBox="0 0 128 128" fill="none" xmlns="http://www.w3.org/2000/svg">
<g clip-path="url(#clip0_905_2)">
<path d="M128 112.552V116.966C127.998 123.059 123.059 127.998 116.965 128H11.0345C4.94125 127.998 0.00225 123.059 0 116.966V112.552C0.00675 111.804 0.08075 111.058 0.22075 110.323L5.098 85.4072C8.3755 82.9012 12.4048 81.579 16.5298 81.6555H111.426C115.598 81.584 119.67 82.9385 122.968 85.4955L127.824 110.323H127.779C127.919 111.058 127.993 111.804 128 112.552Z" fill="#D1D4D1"/>
<path d="M128 112.552V116.966C127.998 123.059 123.059 127.998 116.965 128H11.0345C4.94125 127.998 0.00225 123.059 0 116.966V112.552C0.00675 111.804 0.08075 111.058 0.22075 110.323C1.2865 105.198 5.8 101.523 11.0345 101.518H116.965C122.2 101.523 126.714 105.198 127.779 110.323C127.919 111.058 127.993 111.804 128 112.552Z" fill="#A5A5A4"/>
<path d="M122.968 85.4952C119.67 82.9382 115.598 81.5838 111.426 81.6553H16.5297C12.4047 81.5785 8.3754 82.901 5.0979 85.407L18.1627 18.6043L20.0384 8.98225H20.0604C21.0409 3.77075 25.5939 -0.0032479 30.8964 2.09745e-06H97.1034C102.406 -0.0032479 106.959 3.77075 107.939 8.982H107.983L109.881 18.6703L122.968 85.4952Z" fill="#2270A8"/>
<path d="M112.552 119.172C114.989 119.172 116.965 117.196 116.965 114.758C116.965 112.321 114.989 110.345 112.552 110.345C110.114 110.345 108.138 112.321 108.138 114.758C108.138 117.196 110.114 119.172 112.552 119.172Z" fill="#E57E25"/>
<path d="M97.1034 116.966H13.2414C12.0227 116.966 11.0344 115.978 11.0344 114.759C11.0344 113.54 12.0224 112.552 13.2414 112.552H97.1034C98.3222 112.552 99.3104 113.54 99.3104 114.759C99.3104 115.978 98.3222 116.966 97.1034 116.966Z" fill="#5E5F62"/>
<g clip-path="url(#clip1_905_2)">
<path d="M81.0474 32.4995C80.8821 32.1445 80.526 31.9167 80.1338 31.9167H68.1851L79.9775 13.2978C80.1741 12.9873 80.1862 12.594 80.0088 12.2724C79.8313 11.9497 79.4925 11.75 79.1254 11.75H62.9921C62.61 11.75 62.2611 11.9658 62.0897 12.3076L46.9647 42.5576C46.8084 42.8692 46.8255 43.2403 47.009 43.5377C47.1936 43.8351 47.5173 44.0166 47.8671 44.0166H58.2358L46.9374 70.8503C46.7448 71.3092 46.9163 71.8415 47.3407 72.1017C47.504 72.2016 47.6855 72.2499 47.8661 72.2499C48.1555 72.2499 48.4408 72.1258 48.6385 71.892L80.9052 33.5753C81.1582 33.2749 81.2127 32.8554 81.0474 32.4995Z" fill="#E38F12"/>
</g>
</g>
<defs>
<clipPath id="clip0_905_2">
<rect width="128" height="128" fill="white"/>
</clipPath>
<clipPath id="clip1_905_2">
<rect width="60.5" height="60.5" fill="white" transform="translate(33.75 11.75)"/>
</clipPath>
</defs>
</svg>
